<svg xmlns="http://www.w3.org/2000/svg" width="24" height="24" viewBox="0 0 24 24" >
<path d="M13 14.5C13 13.9477 12.5523 13.5 12 13.5C11.4477 13.5 11 13.9477 11 14.5V16.5C11 17.0523 11.4477 17.5 12 17.5C12.5523 17.5 13 17.0523 13 16.5V14.5Z" />
<path fill-rule="evenodd" clip-rule="evenodd" d="M6 7V9.00822C5.9524 9.01046 5.90622 9.01332 5.86176 9.01695C5.63317 9.03563 5.36343 9.07969 5.09201 9.21799C4.71569 9.40974 4.40973 9.7157 4.21798 10.092C4.07968 10.3634 4.03561 10.6332 4.01694 10.8618C3.99993 11.0699 3.99996 11.3157 3.99999 11.568L3.99999 16.2413C3.99998 17.0463 3.99997 17.7106 4.04419 18.2518C4.09011 18.8139 4.18867 19.3306 4.43597 19.816C4.81946 20.5686 5.43138 21.1805 6.18403 21.564C6.66937 21.8113 7.18607 21.9099 7.74817 21.9558C8.28937 22 8.95374 22 9.75872 22L14.2413 22C15.0463 22 15.7106 22 16.2518 21.9558C16.8139 21.9099 17.3306 21.8113 17.816 21.564C18.5686 21.1805 19.1805 20.5686 19.564 19.816C19.8113 19.3306 19.9099 18.8139 19.9558 18.2518C20 17.7107 20 17.0463 20 16.2414L20 11.5681C20 11.3158 20.0001 11.0699 19.983 10.8618C19.9644 10.6332 19.9203 10.3634 19.782 10.092C19.5903 9.7157 19.2843 9.40974 18.908 9.21799C18.6365 9.07969 18.3668 9.03563 18.1382 9.01695C18.0938 9.01332 18.0476 9.01046 18 9.00822V7C18 3.68629 15.3137 1 12 1C8.68629 1 6 3.6863 6 7ZM12 3C9.79086 3 8 4.79086 8 7V9L16 9V7C16 4.79086 14.2091 3 12 3ZM17.9885 11.0115L17.9754 11.0103C17.8588 11.0008 17.6965 11 17.4 11H6.59999C6.30346 11 6.14121 11.0008 6.02463 11.0103L6.01144 11.0115L6.0103 11.0246C6.00077 11.1412 5.99999 11.3035 5.99999 11.6L5.99999 16.2C5.99999 17.0566 6.00077 17.6389 6.03754 18.089C6.07336 18.5274 6.13829 18.7516 6.21798 18.908C6.40973 19.2843 6.71569 19.5903 7.09201 19.782C7.24841 19.8617 7.47261 19.9266 7.91103 19.9625C8.36112 19.9992 8.94341 20 9.79999 20L14.2 20C15.0566 20 15.6389 19.9992 16.089 19.9625C16.5274 19.9266 16.7516 19.8617 16.908 19.782C17.2843 19.5903 17.5903 19.2843 17.782 18.908C17.8617 18.7516 17.9266 18.5274 17.9624 18.089C17.9992 17.6389 18 17.0566 18 16.2L18 11.6C18 11.3035 17.9992 11.1412 17.9897 11.0246L17.9885 11.0115Z" />
</svg>