<svg xmlns="http://www.w3.org/2000/svg" width="24" height="24" viewBox="0 0 24 24" >
  <path d="M13.7071 15.2071C14.0976 14.8166 14.0976 14.1834 13.7071 13.7929C13.3166 13.4024 12.6834 13.4024 12.2929 13.7929L10.2929 15.7929C9.90237 16.1834 9.90237 16.8166 10.2929 17.2071C10.6834 17.5976 11.3166 17.5976 11.7071 17.2071L13.7071 15.2071Z" />
  <path fill-rule="evenodd" clip-rule="evenodd" d="M12 3C9.79086 3 8 4.79086 8 7V10H17.4319C17.6843 9.99997 17.9301 9.99994 18.1382 10.017C18.3668 10.0356 18.6365 10.0797 18.908 10.218C19.2843 10.4097 19.5903 10.7157 19.782 11.092C19.9203 11.3634 19.9644 11.6332 19.983 11.8618C20.0001 12.0699 20 12.3156 20 12.568L20 16.2413C20 17.0463 20 17.7106 19.9558 18.2518C19.9099 18.8139 19.8113 19.3306 19.564 19.816C19.1805 20.5686 18.5686 21.1805 17.816 21.564C17.3306 21.8113 16.8139 21.9099 16.2518 21.9558C15.7106 22 15.0463 22 14.2414 22L9.75872 22C8.95374 22 8.28937 22 7.74817 21.9558C7.18607 21.9099 6.66937 21.8113 6.18403 21.564C5.43138 21.1805 4.81946 20.5686 4.43597 19.816C4.18867 19.3306 4.09011 18.8139 4.04419 18.2518C3.99997 17.7106 3.99998 17.0463 3.99999 16.2413L3.99999 12.5681C3.99996 12.3157 3.99993 12.0699 4.01694 11.8618C4.03561 11.6332 4.07968 11.3634 4.21798 11.092C4.40973 10.7157 4.71569 10.4097 5.09201 10.218C5.36343 10.0797 5.63317 10.0356 5.86176 10.017C5.90622 10.0133 5.9524 10.0105 6 10.0082V7C6 3.68629 8.68629 1 12 1H12.5C15.5376 1 18 3.46243 18 6.5C18 7.05228 17.5523 7.5 17 7.5C16.4477 7.5 16 7.05228 16 6.5C16 4.567 14.433 3 12.5 3H12ZM17.9885 12.0115L17.9754 12.0103C17.8588 12.0008 17.6965 12 17.4 12H6.59999C6.30346 12 6.14121 12.0008 6.02463 12.0103L6.01144 12.0115L6.0103 12.0246C6.00077 12.1412 5.99999 12.3035 5.99999 12.6L5.99999 16.2C5.99999 17.0566 6.00077 17.6389 6.03754 18.089C6.07336 18.5274 6.13829 18.7516 6.21798 18.908C6.40973 19.2843 6.71569 19.5903 7.09201 19.782C7.24841 19.8617 7.47261 19.9266 7.91103 19.9625C8.36112 19.9992 8.94341 20 9.79999 20L14.2 20C15.0566 20 15.6389 19.9992 16.089 19.9625C16.5274 19.9266 16.7516 19.8617 16.908 19.782C17.2843 19.5903 17.5903 19.2843 17.782 18.908C17.8617 18.7516 17.9266 18.5274 17.9624 18.089C17.9992 17.6389 18 17.0566 18 16.2V12.6C18 12.3035 17.9992 12.1412 17.9897 12.0246L17.9885 12.0115Z" />
</svg>